<mxfile host="65bd71144e">
    <diagram id="aHugXcEGxJxu6viy8hNq" name="Page-1">
        <mxGraphModel dx="223" dy="1373" grid="1" gridSize="10" guides="1" tooltips="1" connect="1" arrows="1" fold="1" page="1" pageScale="1" pageWidth="827" pageHeight="1169" math="0" shadow="0">
            <root>
                <mxCell id="0"/>
                <mxCell id="1" parent="0"/>
                <mxCell id="26" style="edgeStyle=none;html=1;exitX=1;exitY=0.5;exitDx=0;exitDy=0;entryX=0;entryY=0.5;entryDx=0;entryDy=0;entryPerimeter=0;dashed=1;endArrow=none;endFill=0;" edge="1" parent="1" source="28" target="29">
                    <mxGeometry relative="1" as="geometry"/>
                </mxCell>
                <mxCell id="27" style="edgeStyle=none;html=1;endArrow=none;endFill=0;" edge="1" parent="1" source="28">
                    <mxGeometry relative="1" as="geometry">
                        <mxPoint x="383.9999999999998" y="-793.9999999999999" as="targetPoint"/>
                    </mxGeometry>
                </mxCell>
                <mxCell id="28" value="Начало" style="rounded=1;whiteSpace=wrap;html=1;arcSize=28;" vertex="1" parent="1">
                    <mxGeometry x="324" y="-873.9999999999999" width="120" height="60" as="geometry"/>
                </mxCell>
                <mxCell id="29" value="Алгоритм Ламбертового освещения для прожекторных источников света." style="strokeWidth=1;shape=mxgraph.flowchart.annotation_1;align=left;pointerEvents=1;whiteSpace=wrap;fontColor=default;" vertex="1" parent="1">
                    <mxGeometry x="464" y="-893.9999999999999" width="39" height="100" as="geometry"/>
                </mxCell>
                <mxCell id="30" style="edgeStyle=orthogonalEdgeStyle;rounded=0;html=1;strokeColor=default;fontColor=default;endArrow=none;endFill=0;" edge="1" parent="1" source="31" target="36">
                    <mxGeometry relative="1" as="geometry"/>
                </mxCell>
                <mxCell id="31" value="Обработка N пикселей" style="shape=loopLimit;whiteSpace=wrap;html=1;labelBackgroundColor=none;labelBorderColor=none;fontColor=default;" vertex="1" parent="1">
                    <mxGeometry x="324" y="-793.9999999999999" width="120" height="50" as="geometry"/>
                </mxCell>
                <mxCell id="32" style="edgeStyle=orthogonalEdgeStyle;rounded=0;html=1;strokeColor=default;fontColor=default;endArrow=none;endFill=0;" edge="1" parent="1" source="33" target="40">
                    <mxGeometry relative="1" as="geometry"/>
                </mxCell>
                <mxCell id="33" value="Пока остались необработанные пиксели" style="shape=loopLimit;whiteSpace=wrap;html=1;labelBackgroundColor=none;labelBorderColor=none;fontColor=default;direction=west;" vertex="1" parent="1">
                    <mxGeometry x="324" y="-240" width="120" height="50" as="geometry"/>
                </mxCell>
                <mxCell id="34" style="edgeStyle=orthogonalEdgeStyle;rounded=0;html=1;strokeColor=default;fontColor=default;endArrow=none;endFill=0;" edge="1" parent="1" source="36">
                    <mxGeometry relative="1" as="geometry">
                        <mxPoint x="384" y="-644" as="targetPoint"/>
                    </mxGeometry>
                </mxCell>
                <mxCell id="35" style="edgeStyle=none;html=1;dashed=1;endArrow=none;endFill=0;" edge="1" parent="1" source="36" target="41">
                    <mxGeometry relative="1" as="geometry"/>
                </mxCell>
                <mxCell id="36" value="L=normalize(Pl​−Pf​)" style="rounded=0;whiteSpace=wrap;" vertex="1" parent="1">
                    <mxGeometry x="324" y="-723.9999999999999" width="120" height="60" as="geometry"/>
                </mxCell>
                <mxCell id="37" style="edgeStyle=none;html=1;exitX=1;exitY=0.5;exitDx=0;exitDy=0;dashed=1;endArrow=none;endFill=0;" edge="1" parent="1" source="39" target="42">
                    <mxGeometry relative="1" as="geometry"/>
                </mxCell>
                <mxCell id="38" style="edgeStyle=none;html=1;endArrow=none;endFill=0;" edge="1" parent="1" source="39" target="45">
                    <mxGeometry relative="1" as="geometry"/>
                </mxCell>
                <mxCell id="39" value="d=max{0,N⋅L}" style="rounded=0;whiteSpace=wrap;" vertex="1" parent="1">
                    <mxGeometry x="324" y="-643.4999999999999" width="120" height="60" as="geometry"/>
                </mxCell>
                <mxCell id="40" value="Конец" style="rounded=1;whiteSpace=wrap;html=1;arcSize=28;" vertex="1" parent="1">
                    <mxGeometry x="324" y="-170" width="120" height="60" as="geometry"/>
                </mxCell>
                <mxCell id="41" value="Вычисление направления от пикселя к источнику света" style="strokeWidth=1;shape=mxgraph.flowchart.annotation_1;align=left;pointerEvents=1;whiteSpace=wrap;fontColor=default;" vertex="1" parent="1">
                    <mxGeometry x="464" y="-723.0699999999999" width="39" height="58.14" as="geometry"/>
                </mxCell>
                <mxCell id="42" value="Вычисление косинуса угла между нормалью и L " style="strokeWidth=1;shape=mxgraph.flowchart.annotation_1;align=left;pointerEvents=1;whiteSpace=wrap;fontColor=default;" vertex="1" parent="1">
                    <mxGeometry x="464" y="-642.5699999999999" width="39" height="58.14" as="geometry"/>
                </mxCell>
                <mxCell id="43" style="edgeStyle=none;html=1;endArrow=none;endFill=0;dashed=1;" edge="1" parent="1" source="45" target="46">
                    <mxGeometry relative="1" as="geometry"/>
                </mxCell>
                <mxCell id="52" style="edgeStyle=none;html=1;endArrow=none;endFill=0;" edge="1" parent="1" source="45" target="51">
                    <mxGeometry relative="1" as="geometry"/>
                </mxCell>
                <mxCell id="45" value="A=max" style="rounded=0;whiteSpace=wrap;" vertex="1" parent="1">
                    <mxGeometry x="324" y="-563.9999999999999" width="120" height="60" as="geometry"/>
                </mxCell>
                <mxCell id="46" value="Уменьшение интенсивности с расстоянием" style="strokeWidth=1;shape=mxgraph.flowchart.annotation_1;align=left;pointerEvents=1;whiteSpace=wrap;fontColor=default;" vertex="1" parent="1">
                    <mxGeometry x="464" y="-562.14" width="39" height="58.14" as="geometry"/>
                </mxCell>
                <mxCell id="47" style="edgeStyle=none;html=1;endArrow=none;endFill=0;" edge="1" parent="1" source="49" target="33">
                    <mxGeometry relative="1" as="geometry"/>
                </mxCell>
                <mxCell id="48" style="edgeStyle=none;html=1;endArrow=none;endFill=0;dashed=1;" edge="1" parent="1" source="49" target="50">
                    <mxGeometry relative="1" as="geometry"/>
                </mxCell>
                <mxCell id="49" value="Color" style="rounded=0;whiteSpace=wrap;" vertex="1" parent="1">
                    <mxGeometry x="324" y="-319.99999999999994" width="120" height="60" as="geometry"/>
                </mxCell>
                <mxCell id="50" value="Уменьшение интенсивности с расстоянием" style="strokeWidth=1;shape=mxgraph.flowchart.annotation_1;align=left;pointerEvents=1;whiteSpace=wrap;fontColor=default;" vertex="1" parent="1">
                    <mxGeometry x="464" y="-318.14000000000004" width="39" height="58.14" as="geometry"/>
                </mxCell>
                <mxCell id="54" style="edgeStyle=none;html=1;endArrow=none;endFill=0;" edge="1" parent="1" source="51" target="53">
                    <mxGeometry relative="1" as="geometry"/>
                </mxCell>
                <mxCell id="57" style="edgeStyle=none;html=1;endArrow=none;endFill=0;dashed=1;" edge="1" parent="1" source="51" target="56">
                    <mxGeometry relative="1" as="geometry"/>
                </mxCell>
                <mxCell id="51" value="spotEffect" style="rounded=0;whiteSpace=wrap;" vertex="1" parent="1">
                    <mxGeometry x="324" y="-479.9999999999999" width="120" height="60" as="geometry"/>
                </mxCell>
                <mxCell id="55" style="edgeStyle=none;html=1;endArrow=none;endFill=0;" edge="1" parent="1" source="53" target="49">
                    <mxGeometry relative="1" as="geometry"/>
                </mxCell>
                <mxCell id="59" style="edgeStyle=none;html=1;entryX=0;entryY=0.5;entryDx=0;entryDy=0;entryPerimeter=0;dashed=1;endArrow=none;endFill=0;" edge="1" parent="1" source="53" target="58">
                    <mxGeometry relative="1" as="geometry"/>
                </mxCell>
                <mxCell id="53" value="spotIntensity" style="rounded=0;whiteSpace=wrap;" vertex="1" parent="1">
                    <mxGeometry x="324" y="-399.9999999999999" width="120" height="60" as="geometry"/>
                </mxCell>
                <mxCell id="56" value="Уменьшение интенсивности с расстоянием" style="strokeWidth=1;shape=mxgraph.flowchart.annotation_1;align=left;pointerEvents=1;whiteSpace=wrap;fontColor=default;" vertex="1" parent="1">
                    <mxGeometry x="464" y="-479.07" width="36" height="58.14" as="geometry"/>
                </mxCell>
                <mxCell id="58" value="Уменьшение интенсивности с расстоянием" style="strokeWidth=1;shape=mxgraph.flowchart.annotation_1;align=left;pointerEvents=1;whiteSpace=wrap;fontColor=default;" vertex="1" parent="1">
                    <mxGeometry x="464" y="-399.07" width="36" height="58.14" as="geometry"/>
                </mxCell>
            </root>
        </mxGraphModel>
    </diagram>
</mxfile>